<svg width="25" height="23" viewBox="0 0 25 23" fill="none" xmlns="http://www.w3.org/2000/svg">
<path d="M14.4923 14.1573C18.6873 14.1573 22.1002 11.1821 22.1002 7.52506C22.1002 3.86803 18.6873 0.892731 14.4923 0.892731C10.2974 0.892731 6.88452 3.86799 6.88452 7.52501C6.88452 11.182 10.2974 14.1573 14.4923 14.1573ZM12.0477 9.59464C12.269 9.30208 12.7227 9.21995 13.061 9.41143C13.5539 9.69028 13.7399 9.71598 14.3903 9.71206C15.0252 9.70843 15.3936 9.29917 15.4672 8.92042C15.503 8.7362 15.5167 8.28634 14.872 8.08925C14.1159 7.85805 13.3421 7.59381 12.8037 7.22861C12.2654 6.86341 12.0188 6.23296 12.1604 5.58339C12.3139 4.87921 12.8818 4.31865 13.6427 4.12045C13.6496 4.11868 13.6563 4.11725 13.6632 4.11547V3.8755C13.6632 3.52588 13.9909 3.24243 14.3952 3.24243C14.7994 3.24243 15.1272 3.52588 15.1272 3.8755V4.07559C15.6243 4.17823 15.9715 4.37495 16.1125 4.46607C16.4363 4.67544 16.5026 5.07212 16.2605 5.35219C16.0185 5.63226 15.5598 5.68958 15.236 5.48016C15.086 5.38317 14.6714 5.17468 14.0649 5.33274C13.7106 5.42508 13.6187 5.72744 13.599 5.81788C13.5603 5.9956 13.6037 6.16219 13.7072 6.23233C14.0803 6.48547 14.7521 6.70962 15.3599 6.89545C16.4808 7.23811 17.1041 8.13622 16.9109 9.13031C16.8161 9.61807 16.5323 10.0706 16.1119 10.4046C15.8256 10.6322 15.4923 10.7944 15.1272 10.8871V11.1745C15.1272 11.5242 14.7994 11.8076 14.3952 11.8076C13.9909 11.8076 13.6632 11.5242 13.6632 11.1745V10.9502C13.1899 10.9006 12.7926 10.7726 12.2595 10.471C11.9213 10.2796 11.8264 9.88721 12.0477 9.59464Z" fill="#B1B1B1"/>
<path d="M2.77455 16.2845H1.10552C0.70127 16.2845 0.373535 16.5679 0.373535 16.9176V21.8804C0.373535 22.23 0.70127 22.5135 1.10552 22.5135H2.7746V16.2845H2.77455Z" fill="#B1B1B1"/>
<path d="M24.4121 16.2403C23.0401 15.0537 20.8077 15.0537 19.4358 16.2403L17.2431 18.1367L16.3444 18.914C15.9811 19.2281 15.4885 19.4046 14.9748 19.4046H10.6047C10.21 19.4046 9.87033 19.1423 9.85174 18.8013C9.83193 18.4372 10.1673 18.1367 10.5839 18.1367H15.0259C15.919 18.1367 16.6937 17.5868 16.8472 16.8259C16.8825 16.6511 16.9009 16.4715 16.9009 16.2881C16.9009 15.9379 16.5728 15.6537 16.1679 15.6537H13.7339C12.9385 15.6537 12.1746 15.3416 11.3659 15.0111C10.5176 14.6646 9.64049 14.3062 8.61488 14.2472C7.71785 14.1955 6.81878 14.2805 5.94249 14.4993C5.00423 14.7336 4.32978 15.4546 4.24799 16.2869C4.24487 16.2867 4.2417 16.2867 4.23853 16.2865V22.5113L16.8495 22.5143C17.7166 22.5143 18.5318 22.2223 19.145 21.692L24.4119 17.1368C24.6983 16.8893 24.6983 16.4879 24.4121 16.2403Z" fill="#B1B1B1"/>
</svg>
