<svg width="545" height="583" viewBox="0 0 545 583" fill="none" xmlns="http://www.w3.org/2000/svg">
<rect y="0.154175" width="545" height="507.846" rx="25" fill="white"/>
<rect y="-0.00012207" width="545" height="583" rx="25" fill="white"/>
<path d="M482.916 255.275C480.495 192.887 455.844 136.317 416.725 93.4251L256.93 255.275H482.916Z" fill="#FC7900"/>
<path d="M239.631 252.845L384.276 106.34C346.276 70.7752 295.484 49.0464 239.631 49.0464C183.81 49.0464 133.018 70.8067 94.9863 106.34L239.631 252.845Z" fill="#343C6A"/>
<path d="M246.029 269.849V458.585C347.147 454.56 428.396 372.267 432.37 269.849H246.029Z" fill="#1814F3"/>
<path d="M232.798 265.93L110.537 142.098C81.5712 173.858 63.8438 216.309 63.8438 262.975C63.8438 359.009 138.852 437.277 232.767 441.019V265.93H232.798Z" fill="#FA00FF"/>
<path d="M227.523 116.251C226.675 116.251 225.919 116.105 225.256 115.813C224.597 115.518 224.076 115.112 223.694 114.597C223.315 114.078 223.12 113.48 223.109 112.802H225.586C225.601 113.086 225.694 113.336 225.864 113.552C226.038 113.764 226.27 113.929 226.557 114.046C226.845 114.163 227.169 114.222 227.529 114.222C227.904 114.222 228.235 114.156 228.523 114.023C228.811 113.891 229.037 113.707 229.199 113.472C229.362 113.237 229.444 112.966 229.444 112.66C229.444 112.349 229.357 112.074 229.182 111.836C229.012 111.593 228.766 111.404 228.444 111.268C228.126 111.131 227.747 111.063 227.307 111.063H226.222V109.256H227.307C227.679 109.256 228.006 109.192 228.29 109.063C228.578 108.934 228.802 108.756 228.961 108.529C229.12 108.298 229.199 108.029 229.199 107.722C229.199 107.43 229.129 107.175 228.989 106.955C228.853 106.732 228.66 106.557 228.41 106.432C228.163 106.307 227.876 106.245 227.546 106.245C227.213 106.245 226.908 106.305 226.631 106.427C226.355 106.544 226.133 106.713 225.967 106.932C225.8 107.152 225.711 107.41 225.699 107.705H223.342C223.353 107.035 223.544 106.444 223.915 105.932C224.287 105.421 224.787 105.021 225.415 104.733C226.048 104.442 226.762 104.296 227.557 104.296C228.36 104.296 229.063 104.442 229.665 104.733C230.268 105.025 230.735 105.419 231.069 105.915C231.406 106.408 231.573 106.961 231.569 107.574C231.573 108.226 231.37 108.769 230.961 109.205C230.556 109.641 230.027 109.917 229.376 110.035V110.126C230.232 110.235 230.883 110.533 231.33 111.018C231.781 111.499 232.004 112.101 232.001 112.824C232.004 113.487 231.813 114.076 231.427 114.591C231.044 115.107 230.516 115.512 229.842 115.807C229.167 116.103 228.395 116.251 227.523 116.251ZM238.332 116.347C237.354 116.343 236.513 116.103 235.809 115.626C235.108 115.148 234.568 114.457 234.19 113.552C233.815 112.646 233.629 111.557 233.633 110.285C233.633 109.016 233.82 107.934 234.195 107.04C234.574 106.146 235.114 105.466 235.815 105.001C236.519 104.531 237.358 104.296 238.332 104.296C239.305 104.296 240.142 104.531 240.843 105.001C241.547 105.47 242.089 106.152 242.468 107.046C242.847 107.936 243.034 109.016 243.03 110.285C243.03 111.561 242.841 112.652 242.462 113.557C242.087 114.463 241.549 115.154 240.849 115.631C240.148 116.108 239.309 116.347 238.332 116.347ZM238.332 114.307C238.998 114.307 239.53 113.972 239.928 113.302C240.326 112.631 240.523 111.626 240.519 110.285C240.519 109.402 240.428 108.667 240.246 108.08C240.068 107.493 239.815 107.052 239.485 106.756C239.159 106.461 238.775 106.313 238.332 106.313C237.669 106.313 237.138 106.644 236.741 107.307C236.343 107.97 236.142 108.963 236.138 110.285C236.138 111.179 236.227 111.925 236.405 112.523C236.587 113.118 236.843 113.565 237.172 113.864C237.502 114.16 237.888 114.307 238.332 114.307ZM251.154 113.91V113.296C251.154 112.83 251.253 112.402 251.449 112.012C251.65 111.618 251.94 111.304 252.319 111.069C252.701 110.83 253.167 110.711 253.717 110.711C254.273 110.711 254.741 110.828 255.12 111.063C255.503 111.298 255.79 111.612 255.984 112.006C256.181 112.396 256.279 112.826 256.279 113.296V113.91C256.279 114.376 256.181 114.805 255.984 115.199C255.787 115.59 255.497 115.902 255.114 116.137C254.732 116.376 254.266 116.495 253.717 116.495C253.16 116.495 252.692 116.376 252.313 116.137C251.934 115.902 251.646 115.59 251.449 115.199C251.253 114.805 251.154 114.376 251.154 113.91ZM252.807 113.296V113.91C252.807 114.179 252.872 114.432 253.001 114.671C253.133 114.91 253.372 115.029 253.717 115.029C254.061 115.029 254.296 114.911 254.421 114.677C254.55 114.442 254.614 114.186 254.614 113.91V113.296C254.614 113.019 254.554 112.762 254.432 112.523C254.311 112.285 254.073 112.165 253.717 112.165C253.376 112.165 253.139 112.285 253.006 112.523C252.874 112.762 252.807 113.019 252.807 113.296ZM245.182 107.251V106.637C245.182 106.167 245.283 105.737 245.484 105.347C245.684 104.953 245.974 104.639 246.353 104.404C246.735 104.169 247.198 104.052 247.739 104.052C248.3 104.052 248.77 104.169 249.148 104.404C249.527 104.639 249.815 104.953 250.012 105.347C250.209 105.737 250.307 106.167 250.307 106.637V107.251C250.307 107.72 250.207 108.15 250.006 108.54C249.809 108.93 249.52 109.243 249.137 109.478C248.758 109.709 248.292 109.824 247.739 109.824C247.186 109.824 246.718 109.707 246.336 109.472C245.957 109.233 245.669 108.921 245.472 108.535C245.279 108.144 245.182 107.716 245.182 107.251ZM246.847 106.637V107.251C246.847 107.527 246.912 107.783 247.04 108.018C247.173 108.252 247.406 108.37 247.739 108.37C248.088 108.37 248.324 108.252 248.449 108.018C248.578 107.783 248.643 107.527 248.643 107.251V106.637C248.643 106.36 248.582 106.103 248.461 105.864C248.34 105.626 248.099 105.506 247.739 105.506C247.402 105.506 247.169 105.627 247.04 105.87C246.912 106.112 246.847 106.368 246.847 106.637ZM245.932 116.091L253.932 104.455H255.421L247.421 116.091H245.932ZM222.184 124.637H224.183V130.777C224.183 131.466 224.018 132.069 223.689 132.586C223.363 133.103 222.905 133.507 222.318 133.796C221.73 134.082 221.045 134.225 220.263 134.225C219.479 134.225 218.792 134.082 218.204 133.796C217.617 133.507 217.159 133.103 216.833 132.586C216.507 132.069 216.344 131.466 216.344 130.777V124.637H218.343V130.606C218.343 130.966 218.421 131.286 218.578 131.566C218.738 131.846 218.963 132.066 219.252 132.226C219.542 132.386 219.879 132.466 220.263 132.466C220.651 132.466 220.988 132.386 221.274 132.226C221.564 132.066 221.787 131.846 221.944 131.566C222.104 131.286 222.184 130.966 222.184 130.606V124.637ZM229.562 127.001V128.478H225.292V127.001H229.562ZM226.261 125.302H228.228V131.912C228.228 132.094 228.256 132.236 228.311 132.337C228.366 132.436 228.443 132.505 228.542 132.545C228.643 132.585 228.76 132.605 228.893 132.605C228.985 132.605 229.077 132.597 229.17 132.582C229.262 132.563 229.333 132.55 229.382 132.54L229.691 134.004C229.593 134.034 229.454 134.07 229.276 134.11C229.097 134.153 228.88 134.179 228.625 134.188C228.151 134.207 227.735 134.144 227.378 133.999C227.025 133.854 226.749 133.63 226.552 133.325C226.355 133.02 226.258 132.636 226.261 132.171V125.302ZM230.843 134.091V127.001H232.81V134.091H230.843ZM231.831 126.086C231.539 126.086 231.288 125.99 231.079 125.796C230.872 125.599 230.769 125.363 230.769 125.089C230.769 124.818 230.872 124.586 231.079 124.392C231.288 124.195 231.539 124.097 231.831 124.097C232.123 124.097 232.373 124.195 232.579 124.392C232.788 124.586 232.893 124.818 232.893 125.089C232.893 125.363 232.788 125.599 232.579 125.796C232.373 125.99 232.123 126.086 231.831 126.086ZM236.352 124.637V134.091H234.385V124.637H236.352ZM237.927 134.091V127.001H239.894V134.091H237.927ZM238.915 126.086C238.623 126.086 238.372 125.99 238.163 125.796C237.956 125.599 237.853 125.363 237.853 125.089C237.853 124.818 237.956 124.586 238.163 124.392C238.372 124.195 238.623 124.097 238.915 124.097C239.207 124.097 239.457 124.195 239.663 124.392C239.872 124.586 239.977 124.818 239.977 125.089C239.977 125.363 239.872 125.599 239.663 125.796C239.457 125.99 239.207 126.086 238.915 126.086ZM245.241 127.001V128.478H240.971V127.001H245.241ZM241.94 125.302H243.907V131.912C243.907 132.094 243.934 132.236 243.99 132.337C244.045 132.436 244.122 132.505 244.221 132.545C244.322 132.585 244.439 132.605 244.571 132.605C244.664 132.605 244.756 132.597 244.848 132.582C244.941 132.563 245.011 132.55 245.061 132.54L245.37 134.004C245.272 134.034 245.133 134.07 244.955 134.11C244.776 134.153 244.559 134.179 244.304 134.188C243.83 134.207 243.414 134.144 243.057 133.999C242.703 133.854 242.428 133.63 242.231 133.325C242.034 133.02 241.937 132.636 241.94 132.171V125.302ZM246.522 134.091V127.001H248.488V134.091H246.522ZM247.51 126.086C247.217 126.086 246.967 125.99 246.757 125.796C246.551 125.599 246.448 125.363 246.448 125.089C246.448 124.818 246.551 124.586 246.757 124.392C246.967 124.195 247.217 124.097 247.51 124.097C247.802 124.097 248.051 124.195 248.258 124.392C248.467 124.586 248.572 124.818 248.572 125.089C248.572 125.363 248.467 125.599 248.258 125.796C248.051 125.99 247.802 126.086 247.51 126.086ZM253.295 134.23C252.566 134.23 251.938 134.082 251.412 133.787C250.889 133.488 250.485 133.067 250.202 132.522C249.919 131.974 249.778 131.326 249.778 130.578C249.778 129.849 249.919 129.209 250.202 128.658C250.485 128.107 250.884 127.678 251.398 127.37C251.915 127.062 252.521 126.908 253.217 126.908C253.685 126.908 254.12 126.984 254.523 127.134C254.93 127.282 255.284 127.505 255.585 127.804C255.89 128.102 256.127 128.478 256.296 128.93C256.465 129.38 256.55 129.906 256.55 130.509V131.049H250.562V129.83H254.699C254.699 129.547 254.637 129.296 254.514 129.078C254.391 128.859 254.22 128.689 254.002 128.565C253.786 128.439 253.535 128.376 253.249 128.376C252.951 128.376 252.686 128.445 252.455 128.584C252.227 128.719 252.049 128.903 251.92 129.133C251.79 129.361 251.724 129.615 251.721 129.895V131.054C251.721 131.405 251.786 131.708 251.915 131.963C252.047 132.219 252.234 132.416 252.474 132.554C252.714 132.693 252.998 132.762 253.328 132.762C253.546 132.762 253.746 132.731 253.928 132.67C254.109 132.608 254.265 132.516 254.394 132.393C254.523 132.269 254.622 132.119 254.69 131.94L256.508 132.06C256.416 132.497 256.227 132.879 255.941 133.205C255.657 133.528 255.291 133.781 254.842 133.962C254.396 134.141 253.88 134.23 253.295 134.23ZM263.733 129.023L261.933 129.133C261.902 128.979 261.836 128.841 261.734 128.718C261.633 128.592 261.499 128.492 261.333 128.418C261.17 128.341 260.974 128.302 260.746 128.302C260.442 128.302 260.185 128.367 259.975 128.496C259.766 128.622 259.661 128.792 259.661 129.004C259.661 129.173 259.729 129.316 259.865 129.433C260 129.55 260.232 129.644 260.562 129.715L261.845 129.974C262.534 130.115 263.048 130.343 263.387 130.657C263.726 130.971 263.895 131.383 263.895 131.894C263.895 132.359 263.758 132.766 263.484 133.117C263.213 133.468 262.841 133.742 262.367 133.939C261.896 134.133 261.353 134.23 260.737 134.23C259.798 134.23 259.051 134.034 258.494 133.644C257.94 133.25 257.615 132.714 257.519 132.037L259.454 131.936C259.512 132.222 259.654 132.44 259.878 132.591C260.103 132.739 260.391 132.813 260.742 132.813C261.086 132.813 261.363 132.746 261.573 132.614C261.785 132.479 261.893 132.305 261.896 132.092C261.893 131.914 261.817 131.768 261.67 131.654C261.522 131.537 261.294 131.448 260.986 131.386L259.758 131.141C259.066 131.003 258.55 130.763 258.212 130.421C257.876 130.08 257.709 129.644 257.709 129.115C257.709 128.659 257.832 128.267 258.078 127.938C258.327 127.608 258.677 127.354 259.126 127.176C259.578 126.997 260.108 126.908 260.714 126.908C261.61 126.908 262.314 127.097 262.828 127.476C263.345 127.855 263.647 128.37 263.733 129.023Z" fill="white"/>
<path d="M136.483 273.968C135.634 273.968 134.878 273.822 134.216 273.53C133.556 273.235 133.036 272.829 132.653 272.314C132.274 271.795 132.079 271.197 132.068 270.519H134.545C134.56 270.803 134.653 271.053 134.823 271.269C134.998 271.481 135.229 271.646 135.517 271.763C135.805 271.88 136.128 271.939 136.488 271.939C136.863 271.939 137.195 271.873 137.483 271.74C137.77 271.608 137.996 271.424 138.159 271.189C138.322 270.954 138.403 270.683 138.403 270.377C138.403 270.066 138.316 269.791 138.142 269.553C137.971 269.31 137.725 269.121 137.403 268.985C137.085 268.848 136.706 268.78 136.267 268.78H135.181V266.973H136.267C136.638 266.973 136.966 266.909 137.25 266.78C137.537 266.651 137.761 266.473 137.92 266.246C138.079 266.015 138.159 265.746 138.159 265.439C138.159 265.147 138.089 264.892 137.948 264.672C137.812 264.449 137.619 264.274 137.369 264.149C137.123 264.024 136.835 263.962 136.505 263.962C136.172 263.962 135.867 264.022 135.591 264.144C135.314 264.261 135.092 264.43 134.926 264.649C134.759 264.869 134.67 265.127 134.659 265.422H132.301C132.312 264.752 132.503 264.161 132.875 263.649C133.246 263.138 133.746 262.738 134.375 262.45C135.007 262.159 135.721 262.013 136.517 262.013C137.32 262.013 138.022 262.159 138.625 262.45C139.227 262.742 139.695 263.136 140.028 263.632C140.365 264.125 140.532 264.678 140.528 265.291C140.532 265.943 140.329 266.486 139.92 266.922C139.515 267.358 138.986 267.634 138.335 267.752V267.843C139.191 267.952 139.842 268.25 140.289 268.735C140.74 269.216 140.964 269.818 140.96 270.541C140.964 271.204 140.772 271.793 140.386 272.308C140.003 272.824 139.475 273.229 138.801 273.524C138.126 273.82 137.354 273.968 136.483 273.968ZM146.978 273.968C146.175 273.968 145.459 273.82 144.831 273.524C144.206 273.229 143.709 272.822 143.342 272.303C142.975 271.784 142.783 271.189 142.768 270.519H145.154C145.181 270.969 145.37 271.335 145.723 271.615C146.075 271.896 146.493 272.036 146.978 272.036C147.365 272.036 147.706 271.95 148.001 271.78C148.3 271.606 148.533 271.365 148.7 271.058C148.87 270.748 148.956 270.392 148.956 269.99C148.956 269.581 148.868 269.221 148.694 268.911C148.524 268.6 148.287 268.358 147.984 268.183C147.681 268.009 147.334 267.92 146.944 267.916C146.603 267.916 146.272 267.986 145.95 268.127C145.632 268.267 145.384 268.458 145.206 268.7L143.018 268.308L143.569 262.172H150.683V264.183H145.598L145.296 267.098H145.365C145.569 266.81 145.878 266.572 146.291 266.382C146.704 266.193 147.166 266.098 147.677 266.098C148.378 266.098 149.003 266.263 149.552 266.593C150.101 266.922 150.535 267.375 150.853 267.95C151.171 268.522 151.329 269.182 151.325 269.928C151.329 270.712 151.147 271.409 150.779 272.019C150.416 272.625 149.906 273.102 149.251 273.45C148.6 273.795 147.842 273.968 146.978 273.968ZM159.41 271.627V271.013C159.41 270.547 159.509 270.119 159.706 269.729C159.906 269.335 160.196 269.021 160.575 268.786C160.957 268.547 161.423 268.428 161.973 268.428C162.529 268.428 162.997 268.545 163.376 268.78C163.759 269.015 164.046 269.329 164.24 269.723C164.437 270.113 164.535 270.543 164.535 271.013V271.627C164.535 272.093 164.437 272.522 164.24 272.916C164.043 273.307 163.753 273.619 163.37 273.854C162.988 274.093 162.522 274.212 161.973 274.212C161.416 274.212 160.948 274.093 160.569 273.854C160.19 273.619 159.903 273.307 159.706 272.916C159.509 272.522 159.41 272.093 159.41 271.627ZM161.064 271.013V271.627C161.064 271.896 161.128 272.149 161.257 272.388C161.389 272.627 161.628 272.746 161.973 272.746C162.317 272.746 162.552 272.628 162.677 272.394C162.806 272.159 162.87 271.903 162.87 271.627V271.013C162.87 270.736 162.81 270.479 162.689 270.24C162.567 270.002 162.329 269.882 161.973 269.882C161.632 269.882 161.395 270.002 161.262 270.24C161.13 270.479 161.064 270.736 161.064 271.013ZM153.439 264.968V264.354C153.439 263.884 153.539 263.454 153.74 263.064C153.94 262.67 154.23 262.356 154.609 262.121C154.992 261.886 155.454 261.769 155.995 261.769C156.556 261.769 157.026 261.886 157.404 262.121C157.783 262.356 158.071 262.67 158.268 263.064C158.465 263.454 158.564 263.884 158.564 264.354V264.968C158.564 265.437 158.463 265.867 158.262 266.257C158.065 266.647 157.776 266.96 157.393 267.195C157.014 267.426 156.548 267.541 155.995 267.541C155.442 267.541 154.975 267.424 154.592 267.189C154.213 266.95 153.925 266.638 153.728 266.252C153.535 265.861 153.439 265.433 153.439 264.968ZM155.103 264.354V264.968C155.103 265.244 155.168 265.5 155.296 265.735C155.429 265.969 155.662 266.087 155.995 266.087C156.344 266.087 156.581 265.969 156.706 265.735C156.834 265.5 156.899 265.244 156.899 264.968V264.354C156.899 264.077 156.838 263.82 156.717 263.581C156.596 263.343 156.355 263.223 155.995 263.223C155.658 263.223 155.425 263.344 155.296 263.587C155.168 263.829 155.103 264.085 155.103 264.354ZM154.189 273.808L162.189 262.172H163.677L155.677 273.808H154.189ZM124.038 285.073C124.001 284.701 123.842 284.411 123.562 284.205C123.282 283.999 122.902 283.896 122.422 283.896C122.096 283.896 121.82 283.942 121.595 284.034C121.371 284.124 121.198 284.248 121.078 284.408C120.961 284.568 120.903 284.75 120.903 284.953C120.897 285.122 120.932 285.27 121.009 285.396C121.089 285.522 121.198 285.632 121.337 285.724C121.475 285.813 121.635 285.892 121.817 285.959C121.999 286.024 122.192 286.079 122.399 286.126L123.248 286.329C123.66 286.421 124.039 286.544 124.384 286.698C124.728 286.852 125.027 287.041 125.279 287.266C125.532 287.49 125.727 287.755 125.866 288.06C126.007 288.365 126.08 288.714 126.083 289.108C126.08 289.686 125.932 290.188 125.639 290.613C125.35 291.034 124.932 291.362 124.384 291.596C123.839 291.827 123.182 291.942 122.413 291.942C121.649 291.942 120.984 291.825 120.418 291.591C119.855 291.358 119.415 291.011 119.098 290.553C118.784 290.091 118.619 289.52 118.604 288.84H120.538C120.56 289.157 120.651 289.422 120.811 289.634C120.974 289.843 121.191 290.002 121.462 290.11C121.735 290.214 122.045 290.267 122.389 290.267C122.728 290.267 123.022 290.217 123.271 290.119C123.524 290.02 123.719 289.883 123.857 289.708C123.996 289.532 124.065 289.331 124.065 289.103C124.065 288.891 124.002 288.712 123.876 288.568C123.753 288.423 123.571 288.3 123.331 288.198C123.094 288.097 122.803 288.004 122.459 287.921L121.429 287.663C120.632 287.469 120.003 287.166 119.541 286.753C119.079 286.341 118.85 285.785 118.853 285.087C118.85 284.514 119.002 284.014 119.31 283.586C119.621 283.159 120.047 282.825 120.589 282.585C121.131 282.345 121.746 282.225 122.436 282.225C123.137 282.225 123.75 282.345 124.273 282.585C124.799 282.825 125.209 283.159 125.501 283.586C125.793 284.014 125.944 284.51 125.953 285.073H124.038ZM129.357 287.709V291.808H127.39V282.354H129.301V285.969H129.385C129.545 285.55 129.803 285.222 130.16 284.985C130.517 284.745 130.965 284.625 131.504 284.625C131.996 284.625 132.425 284.733 132.791 284.948C133.161 285.161 133.447 285.467 133.65 285.867C133.856 286.264 133.958 286.74 133.955 287.293V291.808H131.988V287.644C131.991 287.207 131.881 286.867 131.656 286.624C131.434 286.381 131.123 286.259 130.723 286.259C130.456 286.259 130.219 286.316 130.012 286.43C129.809 286.544 129.649 286.71 129.532 286.929C129.418 287.144 129.36 287.404 129.357 287.709ZM138.706 291.947C137.989 291.947 137.369 291.795 136.846 291.49C136.326 291.182 135.924 290.754 135.641 290.206C135.358 289.656 135.216 289.017 135.216 288.291C135.216 287.558 135.358 286.918 135.641 286.37C135.924 285.819 136.326 285.392 136.846 285.087C137.369 284.779 137.989 284.625 138.706 284.625C139.423 284.625 140.042 284.779 140.562 285.087C141.085 285.392 141.489 285.819 141.772 286.37C142.055 286.918 142.196 287.558 142.196 288.291C142.196 289.017 142.055 289.656 141.772 290.206C141.489 290.754 141.085 291.182 140.562 291.49C140.042 291.795 139.423 291.947 138.706 291.947ZM138.716 290.423C139.042 290.423 139.314 290.331 139.533 290.146C139.751 289.959 139.916 289.703 140.027 289.38C140.141 289.057 140.197 288.689 140.197 288.277C140.197 287.864 140.141 287.497 140.027 287.173C139.916 286.85 139.751 286.595 139.533 286.407C139.314 286.219 139.042 286.126 138.716 286.126C138.386 286.126 138.109 286.219 137.885 286.407C137.663 286.595 137.495 286.85 137.381 287.173C137.271 287.497 137.215 287.864 137.215 288.277C137.215 288.689 137.271 289.057 137.381 289.38C137.495 289.703 137.663 289.959 137.885 290.146C138.109 290.331 138.386 290.423 138.716 290.423ZM143.475 294.468V284.718H145.414V285.909H145.502C145.588 285.718 145.713 285.524 145.876 285.327C146.042 285.127 146.257 284.961 146.522 284.828C146.79 284.693 147.122 284.625 147.519 284.625C148.036 284.625 148.513 284.761 148.95 285.031C149.387 285.299 149.737 285.704 149.998 286.246C150.26 286.784 150.391 287.46 150.391 288.272C150.391 289.063 150.263 289.731 150.007 290.276C149.755 290.817 149.41 291.228 148.973 291.508C148.539 291.785 148.053 291.924 147.515 291.924C147.133 291.924 146.808 291.861 146.541 291.735C146.276 291.608 146.059 291.45 145.89 291.259C145.72 291.065 145.591 290.87 145.502 290.673H145.442V294.468H143.475ZM145.4 288.263C145.4 288.685 145.459 289.052 145.576 289.366C145.693 289.68 145.862 289.925 146.083 290.1C146.305 290.273 146.574 290.359 146.891 290.359C147.211 290.359 147.482 290.271 147.704 290.096C147.925 289.917 148.093 289.671 148.207 289.357C148.324 289.04 148.382 288.675 148.382 288.263C148.382 287.854 148.326 287.494 148.212 287.183C148.098 286.872 147.93 286.629 147.708 286.453C147.487 286.278 147.215 286.19 146.891 286.19C146.571 286.19 146.3 286.275 146.079 286.444C145.86 286.613 145.693 286.853 145.576 287.164C145.459 287.475 145.4 287.841 145.4 288.263ZM151.702 294.468V284.718H153.641V285.909H153.728C153.815 285.718 153.939 285.524 154.102 285.327C154.269 285.127 154.484 284.961 154.749 284.828C155.016 284.693 155.349 284.625 155.746 284.625C156.263 284.625 156.74 284.761 157.177 285.031C157.614 285.299 157.963 285.704 158.225 286.246C158.486 286.784 158.617 287.46 158.617 288.272C158.617 289.063 158.49 289.731 158.234 290.276C157.982 290.817 157.637 291.228 157.2 291.508C156.766 291.785 156.28 291.924 155.741 291.924C155.36 291.924 155.035 291.861 154.767 291.735C154.502 291.608 154.285 291.45 154.116 291.259C153.947 291.065 153.818 290.87 153.728 290.673H153.668V294.468H151.702ZM153.627 288.263C153.627 288.685 153.685 289.052 153.802 289.366C153.919 289.68 154.088 289.925 154.31 290.1C154.532 290.273 154.801 290.359 155.118 290.359C155.438 290.359 155.709 290.271 155.93 290.096C156.152 289.917 156.32 289.671 156.434 289.357C156.551 289.04 156.609 288.675 156.609 288.263C156.609 287.854 156.552 287.494 156.438 287.183C156.324 286.872 156.157 286.629 155.935 286.453C155.713 286.278 155.441 286.19 155.118 286.19C154.798 286.19 154.527 286.275 154.305 286.444C154.087 286.613 153.919 286.853 153.802 287.164C153.685 287.475 153.627 287.841 153.627 288.263ZM159.928 291.808V284.718H161.895V291.808H159.928ZM160.916 283.803C160.624 283.803 160.373 283.706 160.164 283.513C159.958 283.316 159.854 283.08 159.854 282.806C159.854 282.535 159.958 282.303 160.164 282.109C160.373 281.912 160.624 281.814 160.916 281.814C161.209 281.814 161.458 281.912 161.664 282.109C161.873 282.303 161.978 282.535 161.978 282.806C161.978 283.08 161.873 283.316 161.664 283.513C161.458 283.706 161.209 283.803 160.916 283.803ZM165.437 287.709V291.808H163.47V284.718H165.345V285.969H165.428C165.585 285.556 165.848 285.23 166.217 284.99C166.586 284.747 167.034 284.625 167.561 284.625C168.053 284.625 168.482 284.733 168.848 284.948C169.215 285.164 169.499 285.472 169.703 285.872C169.906 286.269 170.007 286.743 170.007 287.293V291.808H168.041V287.644C168.044 287.21 167.933 286.872 167.708 286.629C167.484 286.383 167.174 286.259 166.78 286.259C166.516 286.259 166.282 286.316 166.079 286.43C165.879 286.544 165.722 286.71 165.608 286.929C165.497 287.144 165.44 287.404 165.437 287.709ZM174.752 294.615C174.115 294.615 173.568 294.528 173.113 294.352C172.661 294.18 172.3 293.944 172.033 293.646C171.765 293.347 171.591 293.012 171.511 292.639L173.33 292.395C173.385 292.536 173.473 292.669 173.593 292.792C173.713 292.915 173.872 293.013 174.069 293.087C174.269 293.164 174.512 293.203 174.798 293.203C175.226 293.203 175.578 293.098 175.855 292.889C176.135 292.682 176.275 292.336 176.275 291.85V290.553H176.192C176.106 290.75 175.977 290.936 175.804 291.111C175.632 291.287 175.41 291.43 175.14 291.541C174.869 291.651 174.546 291.707 174.17 291.707C173.638 291.707 173.153 291.584 172.716 291.338C172.282 291.088 171.936 290.708 171.677 290.197C171.422 289.683 171.294 289.034 171.294 288.249C171.294 287.446 171.425 286.775 171.686 286.236C171.948 285.698 172.296 285.295 172.73 285.027C173.167 284.759 173.645 284.625 174.166 284.625C174.563 284.625 174.895 284.693 175.163 284.828C175.43 284.961 175.646 285.127 175.809 285.327C175.975 285.524 176.103 285.718 176.192 285.909H176.266V284.718H178.219V291.878C178.219 292.481 178.071 292.986 177.776 293.392C177.48 293.798 177.071 294.103 176.548 294.306C176.028 294.512 175.429 294.615 174.752 294.615ZM174.793 290.23C175.11 290.23 175.378 290.151 175.597 289.994C175.818 289.834 175.987 289.606 176.104 289.311C176.224 289.012 176.284 288.655 176.284 288.24C176.284 287.824 176.226 287.464 176.109 287.16C175.992 286.852 175.823 286.613 175.601 286.444C175.38 286.275 175.11 286.19 174.793 286.19C174.47 286.19 174.198 286.278 173.976 286.453C173.755 286.626 173.587 286.866 173.473 287.173C173.359 287.481 173.302 287.837 173.302 288.24C173.302 288.649 173.359 289.003 173.473 289.302C173.59 289.597 173.758 289.826 173.976 289.99C174.198 290.15 174.47 290.23 174.793 290.23Z" fill="white"/>
<path d="M365.657 183.773V195.409H363.197V186.108H363.128L360.464 187.779V185.597L363.344 183.773H365.657ZM372.672 195.569C371.869 195.569 371.153 195.421 370.525 195.125C369.9 194.83 369.403 194.423 369.036 193.904C368.669 193.385 368.477 192.79 368.462 192.12H370.849C370.875 192.57 371.064 192.936 371.417 193.216C371.769 193.497 372.188 193.637 372.672 193.637C373.059 193.637 373.4 193.551 373.695 193.381C373.994 193.207 374.227 192.966 374.394 192.659C374.564 192.349 374.65 191.993 374.65 191.591C374.65 191.182 374.563 190.822 374.388 190.512C374.218 190.201 373.981 189.959 373.678 189.784C373.375 189.61 373.028 189.521 372.638 189.517C372.297 189.517 371.966 189.587 371.644 189.728C371.326 189.868 371.078 190.059 370.9 190.301L368.712 189.909L369.263 183.773H376.377V185.784H371.292L370.991 188.699H371.059C371.263 188.411 371.572 188.173 371.985 187.983C372.398 187.794 372.86 187.699 373.371 187.699C374.072 187.699 374.697 187.864 375.246 188.194C375.796 188.523 376.229 188.976 376.547 189.551C376.866 190.123 377.023 190.783 377.019 191.529C377.023 192.313 376.841 193.01 376.474 193.62C376.11 194.226 375.6 194.703 374.945 195.051C374.294 195.396 373.536 195.569 372.672 195.569ZM385.104 193.228V192.614C385.104 192.148 385.203 191.72 385.4 191.33C385.6 190.936 385.89 190.622 386.269 190.387C386.652 190.148 387.117 190.029 387.667 190.029C388.224 190.029 388.691 190.146 389.07 190.381C389.453 190.616 389.741 190.93 389.934 191.324C390.131 191.714 390.229 192.144 390.229 192.614V193.228C390.229 193.694 390.131 194.123 389.934 194.517C389.737 194.908 389.447 195.22 389.064 195.455C388.682 195.694 388.216 195.813 387.667 195.813C387.11 195.813 386.642 195.694 386.263 195.455C385.885 195.22 385.597 194.908 385.4 194.517C385.203 194.123 385.104 193.694 385.104 193.228ZM386.758 192.614V193.228C386.758 193.497 386.822 193.75 386.951 193.989C387.083 194.228 387.322 194.347 387.667 194.347C388.011 194.347 388.246 194.229 388.371 193.995C388.5 193.76 388.564 193.504 388.564 193.228V192.614C388.564 192.337 388.504 192.08 388.383 191.841C388.261 191.603 388.023 191.483 387.667 191.483C387.326 191.483 387.089 191.603 386.956 191.841C386.824 192.08 386.758 192.337 386.758 192.614ZM379.133 186.569V185.955C379.133 185.485 379.233 185.055 379.434 184.665C379.635 184.271 379.924 183.957 380.303 183.722C380.686 183.487 381.148 183.37 381.689 183.37C382.25 183.37 382.72 183.487 383.099 183.722C383.477 183.957 383.765 184.271 383.962 184.665C384.159 185.055 384.258 185.485 384.258 185.955V186.569C384.258 187.038 384.157 187.468 383.956 187.858C383.76 188.248 383.47 188.561 383.087 188.796C382.708 189.027 382.242 189.142 381.689 189.142C381.136 189.142 380.669 189.025 380.286 188.79C379.907 188.551 379.619 188.239 379.422 187.853C379.229 187.462 379.133 187.034 379.133 186.569ZM380.797 185.955V186.569C380.797 186.845 380.862 187.101 380.991 187.336C381.123 187.57 381.356 187.688 381.689 187.688C382.038 187.688 382.275 187.57 382.4 187.336C382.528 187.101 382.593 186.845 382.593 186.569V185.955C382.593 185.678 382.532 185.421 382.411 185.182C382.29 184.944 382.049 184.824 381.689 184.824C381.352 184.824 381.119 184.945 380.991 185.188C380.862 185.43 380.797 185.686 380.797 185.955ZM379.883 195.409L387.883 183.773H389.371L381.371 195.409H379.883ZM338.015 213.409V203.955H341.8C342.496 203.955 343.076 204.058 343.541 204.264C344.005 204.47 344.355 204.757 344.589 205.123C344.823 205.486 344.94 205.905 344.94 206.379C344.94 206.748 344.866 207.073 344.718 207.353C344.57 207.63 344.367 207.857 344.109 208.036C343.853 208.211 343.561 208.336 343.231 208.41V208.502C343.592 208.517 343.929 208.619 344.242 208.807C344.559 208.995 344.816 209.258 345.013 209.596C345.21 209.932 345.309 210.332 345.309 210.796C345.309 211.298 345.184 211.746 344.935 212.14C344.689 212.531 344.324 212.84 343.841 213.068C343.358 213.296 342.762 213.409 342.054 213.409H338.015ZM340.014 211.775H341.643C342.2 211.775 342.607 211.669 342.862 211.457C343.118 211.241 343.245 210.955 343.245 210.598C343.245 210.336 343.182 210.106 343.056 209.906C342.93 209.705 342.75 209.549 342.516 209.435C342.285 209.321 342.01 209.264 341.69 209.264H340.014V211.775ZM340.014 207.911H341.496C341.77 207.911 342.013 207.863 342.225 207.768C342.44 207.67 342.61 207.531 342.733 207.353C342.859 207.174 342.922 206.96 342.922 206.711C342.922 206.369 342.801 206.094 342.557 205.885C342.317 205.675 341.976 205.571 341.533 205.571H340.014V207.911ZM346.573 213.409V206.319H348.539V213.409H346.573ZM347.561 205.404C347.268 205.404 347.017 205.308 346.808 205.114C346.602 204.917 346.499 204.681 346.499 204.407C346.499 204.136 346.602 203.904 346.808 203.71C347.017 203.513 347.268 203.415 347.561 203.415C347.853 203.415 348.102 203.513 348.308 203.71C348.518 203.904 348.622 204.136 348.622 204.407C348.622 204.681 348.518 204.917 348.308 205.114C348.102 205.308 347.853 205.404 347.561 205.404ZM352.081 203.955V213.409H350.115V203.955H352.081ZM355.623 203.955V213.409H353.657V203.955H355.623ZM360.244 213.409V203.955H366.615V205.603H362.243V207.856H366.287V209.504H362.243V211.761H366.634V213.409H360.244ZM369.811 206.319L371.113 208.798L372.447 206.319H374.464L372.41 209.864L374.52 213.409H372.511L371.113 210.958L369.737 213.409H367.706L369.811 209.864L367.78 206.319H369.811ZM375.632 216.069V206.319H377.571V207.51H377.659C377.745 207.319 377.87 207.125 378.033 206.928C378.199 206.728 378.414 206.562 378.679 206.429C378.947 206.294 379.279 206.226 379.676 206.226C380.193 206.226 380.67 206.362 381.107 206.632C381.544 206.9 381.894 207.305 382.155 207.847C382.417 208.385 382.548 209.061 382.548 209.873C382.548 210.664 382.42 211.332 382.165 211.877C381.912 212.418 381.567 212.829 381.13 213.109C380.696 213.386 380.21 213.525 379.672 213.525C379.29 213.525 378.965 213.462 378.698 213.336C378.433 213.209 378.216 213.051 378.047 212.86C377.877 212.666 377.748 212.471 377.659 212.274H377.599V216.069H375.632ZM377.557 209.864C377.557 210.286 377.616 210.653 377.733 210.967C377.85 211.281 378.019 211.526 378.241 211.701C378.462 211.874 378.731 211.96 379.048 211.96C379.368 211.96 379.639 211.872 379.861 211.697C380.082 211.518 380.25 211.272 380.364 210.958C380.481 210.641 380.54 210.276 380.54 209.864C380.54 209.455 380.483 209.095 380.369 208.784C380.255 208.473 380.087 208.23 379.866 208.054C379.644 207.879 379.372 207.791 379.048 207.791C378.728 207.791 378.457 207.876 378.236 208.045C378.017 208.214 377.85 208.454 377.733 208.765C377.616 209.076 377.557 209.442 377.557 209.864ZM387.09 213.548C386.361 213.548 385.733 213.4 385.207 213.105C384.684 212.806 384.28 212.385 383.997 211.84C383.714 211.292 383.573 210.644 383.573 209.896C383.573 209.167 383.714 208.527 383.997 207.976C384.28 207.425 384.679 206.996 385.193 206.688C385.71 206.38 386.316 206.226 387.012 206.226C387.48 206.226 387.915 206.302 388.318 206.452C388.725 206.6 389.078 206.823 389.38 207.122C389.685 207.42 389.922 207.796 390.091 208.248C390.26 208.698 390.345 209.224 390.345 209.827V210.367H384.357V209.148H388.494C388.494 208.865 388.432 208.614 388.309 208.396C388.186 208.177 388.015 208.007 387.797 207.884C387.581 207.757 387.33 207.694 387.044 207.694C386.746 207.694 386.481 207.763 386.25 207.902C386.022 208.037 385.844 208.221 385.715 208.451C385.585 208.679 385.519 208.933 385.516 209.213V210.372C385.516 210.723 385.581 211.026 385.71 211.281C385.842 211.537 386.028 211.734 386.269 211.872C386.509 212.011 386.793 212.08 387.123 212.08C387.341 212.08 387.541 212.049 387.723 211.988C387.904 211.926 388.06 211.834 388.189 211.711C388.318 211.587 388.417 211.437 388.484 211.258L390.303 211.378C390.211 211.815 390.022 212.197 389.736 212.523C389.452 212.846 389.086 213.099 388.637 213.28C388.191 213.459 387.675 213.548 387.09 213.548ZM393.595 209.31V213.409H391.628V206.319H393.503V207.57H393.586C393.743 207.157 394.006 206.831 394.375 206.591C394.744 206.348 395.192 206.226 395.718 206.226C396.211 206.226 396.64 206.334 397.006 206.549C397.373 206.765 397.657 207.073 397.861 207.473C398.064 207.87 398.165 208.344 398.165 208.895V213.409H396.199V209.245C396.202 208.811 396.091 208.473 395.866 208.23C395.642 207.984 395.332 207.86 394.938 207.86C394.674 207.86 394.44 207.917 394.237 208.031C394.037 208.145 393.88 208.311 393.766 208.53C393.655 208.745 393.598 209.005 393.595 209.31ZM405.615 208.341L403.815 208.451C403.784 208.297 403.718 208.159 403.616 208.036C403.515 207.91 403.381 207.81 403.214 207.736C403.051 207.659 402.856 207.62 402.628 207.62C402.324 207.62 402.067 207.685 401.857 207.814C401.648 207.94 401.543 208.11 401.543 208.322C401.543 208.491 401.611 208.634 401.746 208.751C401.882 208.868 402.114 208.962 402.444 209.033L403.727 209.292C404.416 209.433 404.93 209.661 405.269 209.975C405.607 210.289 405.777 210.701 405.777 211.212C405.777 211.677 405.64 212.084 405.366 212.435C405.095 212.786 404.723 213.06 404.249 213.257C403.778 213.451 403.234 213.548 402.619 213.548C401.68 213.548 400.932 213.352 400.375 212.962C399.821 212.568 399.497 212.032 399.401 211.355L401.336 211.254C401.394 211.54 401.536 211.758 401.76 211.909C401.985 212.057 402.273 212.131 402.624 212.131C402.968 212.131 403.245 212.064 403.455 211.932C403.667 211.797 403.775 211.623 403.778 211.41C403.775 211.232 403.699 211.086 403.551 210.972C403.404 210.855 403.176 210.766 402.868 210.704L401.64 210.459C400.948 210.321 400.432 210.081 400.094 209.739C399.758 209.398 399.591 208.962 399.591 208.433C399.591 207.977 399.714 207.585 399.96 207.256C400.209 206.926 400.558 206.672 401.008 206.494C401.46 206.315 401.99 206.226 402.596 206.226C403.491 206.226 404.196 206.415 404.71 206.794C405.227 207.173 405.529 207.688 405.615 208.341ZM410.247 213.548C409.517 213.548 408.889 213.4 408.363 213.105C407.84 212.806 407.437 212.385 407.153 211.84C406.87 211.292 406.729 210.644 406.729 209.896C406.729 209.167 406.87 208.527 407.153 207.976C407.437 207.425 407.835 206.996 408.349 206.688C408.866 206.38 409.473 206.226 410.168 206.226C410.636 206.226 411.071 206.302 411.475 206.452C411.881 206.6 412.235 206.823 412.536 207.122C412.841 207.42 413.078 207.796 413.247 208.248C413.417 208.698 413.501 209.224 413.501 209.827V210.367H407.514V209.148H411.65C411.65 208.865 411.588 208.614 411.465 208.396C411.342 208.177 411.171 208.007 410.953 207.884C410.737 207.757 410.487 207.694 410.2 207.694C409.902 207.694 409.637 207.763 409.406 207.902C409.179 208.037 409 208.221 408.871 208.451C408.742 208.679 408.675 208.933 408.672 209.213V210.372C408.672 210.723 408.737 211.026 408.866 211.281C408.999 211.537 409.185 211.734 409.425 211.872C409.665 212.011 409.95 212.08 410.279 212.08C410.497 212.08 410.697 212.049 410.879 211.988C411.061 211.926 411.216 211.834 411.345 211.711C411.475 211.587 411.573 211.437 411.641 211.258L413.46 211.378C413.367 211.815 413.178 212.197 412.892 212.523C412.609 212.846 412.242 213.099 411.793 213.28C411.347 213.459 410.831 213.548 410.247 213.548Z" fill="white"/>
<path d="M323.289 321.123V319.35L327.431 315.515C327.784 315.174 328.079 314.867 328.318 314.594C328.56 314.322 328.744 314.055 328.869 313.793C328.994 313.528 329.056 313.242 329.056 312.935C329.056 312.594 328.979 312.301 328.823 312.055C328.668 311.805 328.456 311.613 328.187 311.481C327.918 311.344 327.613 311.276 327.272 311.276C326.916 311.276 326.605 311.348 326.34 311.492C326.075 311.636 325.871 311.842 325.727 312.111C325.583 312.38 325.511 312.7 325.511 313.072H323.176C323.176 312.31 323.348 311.649 323.693 311.089C324.037 310.528 324.52 310.094 325.141 309.788C325.763 309.481 326.479 309.327 327.289 309.327C328.123 309.327 328.848 309.475 329.465 309.771C330.087 310.062 330.57 310.467 330.914 310.986C331.259 311.505 331.431 312.1 331.431 312.771C331.431 313.21 331.344 313.644 331.17 314.072C330.999 314.5 330.695 314.975 330.255 315.498C329.816 316.017 329.196 316.64 328.397 317.367L326.698 319.032V319.111H331.585V321.123H323.289ZM337.93 321.378C336.953 321.375 336.112 321.134 335.407 320.657C334.706 320.18 334.167 319.488 333.788 318.583C333.413 317.678 333.227 316.589 333.231 315.316C333.231 314.047 333.418 312.966 333.793 312.072C334.172 311.178 334.712 310.498 335.413 310.032C336.117 309.562 336.956 309.327 337.93 309.327C338.903 309.327 339.74 309.562 340.441 310.032C341.146 310.502 341.687 311.183 342.066 312.077C342.445 312.967 342.632 314.047 342.629 315.316C342.629 316.592 342.439 317.683 342.061 318.589C341.686 319.494 341.148 320.185 340.447 320.663C339.746 321.14 338.907 321.378 337.93 321.378ZM337.93 319.339C338.596 319.339 339.129 319.003 339.526 318.333C339.924 317.663 340.121 316.657 340.117 315.316C340.117 314.433 340.026 313.699 339.845 313.111C339.667 312.524 339.413 312.083 339.083 311.788C338.757 311.492 338.373 311.344 337.93 311.344C337.267 311.344 336.737 311.676 336.339 312.339C335.941 313.002 335.74 313.994 335.737 315.316C335.737 316.21 335.826 316.956 336.004 317.555C336.186 318.149 336.441 318.596 336.771 318.896C337.1 319.191 337.487 319.339 337.93 319.339ZM350.752 318.941V318.327C350.752 317.861 350.851 317.433 351.048 317.043C351.248 316.649 351.538 316.335 351.917 316.1C352.3 315.861 352.766 315.742 353.315 315.742C353.872 315.742 354.339 315.86 354.718 316.094C355.101 316.329 355.389 316.644 355.582 317.038C355.779 317.428 355.877 317.858 355.877 318.327V318.941C355.877 319.407 355.779 319.837 355.582 320.231C355.385 320.621 355.095 320.933 354.713 321.168C354.33 321.407 353.864 321.526 353.315 321.526C352.758 321.526 352.29 321.407 351.911 321.168C351.533 320.933 351.245 320.621 351.048 320.231C350.851 319.837 350.752 319.407 350.752 318.941ZM352.406 318.327V318.941C352.406 319.21 352.47 319.464 352.599 319.702C352.731 319.941 352.97 320.06 353.315 320.06C353.659 320.06 353.894 319.943 354.019 319.708C354.148 319.473 354.213 319.217 354.213 318.941V318.327C354.213 318.051 354.152 317.793 354.031 317.555C353.909 317.316 353.671 317.197 353.315 317.197C352.974 317.197 352.737 317.316 352.605 317.555C352.472 317.793 352.406 318.051 352.406 318.327ZM344.781 312.282V311.668C344.781 311.199 344.881 310.769 345.082 310.378C345.283 309.985 345.572 309.67 345.951 309.435C346.334 309.2 346.796 309.083 347.338 309.083C347.898 309.083 348.368 309.2 348.747 309.435C349.125 309.67 349.413 309.985 349.61 310.378C349.807 310.769 349.906 311.199 349.906 311.668V312.282C349.906 312.752 349.805 313.182 349.605 313.572C349.408 313.962 349.118 314.274 348.735 314.509C348.356 314.74 347.891 314.856 347.338 314.856C346.784 314.856 346.317 314.738 345.934 314.503C345.555 314.265 345.267 313.952 345.07 313.566C344.877 313.176 344.781 312.748 344.781 312.282ZM346.445 311.668V312.282C346.445 312.558 346.51 312.814 346.639 313.049C346.771 313.284 347.004 313.401 347.338 313.401C347.686 313.401 347.923 313.284 348.048 313.049C348.177 312.814 348.241 312.558 348.241 312.282V311.668C348.241 311.392 348.18 311.134 348.059 310.896C347.938 310.657 347.697 310.538 347.338 310.538C347 310.538 346.767 310.659 346.639 310.901C346.51 311.144 346.445 311.399 346.445 311.668ZM345.531 321.123L353.531 309.486H355.019L347.019 321.123H345.531ZM327.34 334.396C327.34 335.427 327.145 336.304 326.754 337.027C326.366 337.75 325.837 338.303 325.166 338.684C324.498 339.063 323.747 339.252 322.913 339.252C322.073 339.252 321.319 339.061 320.651 338.68C319.983 338.298 319.455 337.746 319.068 337.022C318.68 336.299 318.486 335.423 318.486 334.396C318.486 333.365 318.68 332.487 319.068 331.764C319.455 331.041 319.983 330.49 320.651 330.111C321.319 329.73 322.073 329.539 322.913 329.539C323.747 329.539 324.498 329.73 325.166 330.111C325.837 330.49 326.366 331.041 326.754 331.764C327.145 332.487 327.34 333.365 327.34 334.396ZM325.314 334.396C325.314 333.728 325.214 333.164 325.014 332.706C324.817 332.247 324.538 331.9 324.178 331.663C323.818 331.426 323.396 331.307 322.913 331.307C322.43 331.307 322.008 331.426 321.648 331.663C321.288 331.9 321.008 332.247 320.808 332.706C320.611 333.164 320.513 333.728 320.513 334.396C320.513 335.063 320.611 335.627 320.808 336.085C321.008 336.544 321.288 336.892 321.648 337.128C322.008 337.365 322.43 337.484 322.913 337.484C323.396 337.484 323.818 337.365 324.178 337.128C324.538 336.892 324.817 336.544 325.014 336.085C325.214 335.627 325.314 335.063 325.314 334.396ZM332.556 332.032V333.509H328.286V332.032H332.556ZM329.255 330.333H331.222V336.944C331.222 337.125 331.249 337.267 331.305 337.369C331.36 337.467 331.437 337.536 331.536 337.576C331.637 337.616 331.754 337.636 331.886 337.636C331.979 337.636 332.071 337.629 332.163 337.613C332.256 337.595 332.327 337.581 332.376 337.572L332.685 339.035C332.587 339.066 332.448 339.101 332.27 339.141C332.091 339.184 331.874 339.211 331.619 339.22C331.145 339.238 330.729 339.175 330.372 339.03C330.018 338.886 329.743 338.661 329.546 338.356C329.349 338.052 329.252 337.667 329.255 337.202V330.333ZM335.956 335.023V339.123H333.989V329.668H335.9V333.283H335.984C336.144 332.864 336.402 332.537 336.759 332.3C337.116 332.06 337.564 331.94 338.103 331.94C338.595 331.94 339.024 332.047 339.391 332.263C339.76 332.475 340.046 332.781 340.249 333.181C340.455 333.578 340.557 334.054 340.554 334.608V339.123H338.587V334.959C338.59 334.522 338.48 334.182 338.255 333.938C338.033 333.695 337.722 333.574 337.322 333.574C337.055 333.574 336.818 333.631 336.611 333.745C336.408 333.858 336.248 334.025 336.131 334.243C336.017 334.459 335.959 334.719 335.956 335.023ZM345.333 339.261C344.604 339.261 343.976 339.114 343.45 338.818C342.926 338.52 342.523 338.098 342.24 337.553C341.957 337.005 341.815 336.358 341.815 335.61C341.815 334.88 341.957 334.24 342.24 333.689C342.523 333.138 342.922 332.709 343.436 332.401C343.953 332.093 344.559 331.94 345.255 331.94C345.722 331.94 346.158 332.015 346.561 332.166C346.967 332.313 347.321 332.537 347.623 332.835C347.928 333.134 348.165 333.509 348.334 333.962C348.503 334.411 348.588 334.937 348.588 335.54V336.081H342.6V334.862H346.736C346.736 334.579 346.675 334.328 346.552 334.109C346.429 333.891 346.258 333.72 346.039 333.597C345.824 333.471 345.573 333.408 345.287 333.408C344.988 333.408 344.724 333.477 344.493 333.615C344.265 333.751 344.087 333.934 343.957 334.165C343.828 334.392 343.762 334.646 343.759 334.926V336.085C343.759 336.436 343.823 336.739 343.953 336.995C344.085 337.25 344.271 337.447 344.511 337.586C344.751 337.724 345.036 337.793 345.365 337.793C345.584 337.793 345.784 337.762 345.966 337.701C346.147 337.639 346.303 337.547 346.432 337.424C346.561 337.301 346.66 337.15 346.727 336.972L348.546 337.092C348.454 337.529 348.265 337.91 347.978 338.236C347.695 338.56 347.329 338.812 346.88 338.994C346.433 339.172 345.918 339.261 345.333 339.261ZM349.871 339.123V332.032H351.778V333.269H351.852C351.981 332.829 352.198 332.497 352.502 332.272C352.807 332.044 353.158 331.93 353.555 331.93C353.653 331.93 353.76 331.936 353.874 331.949C353.987 331.961 354.087 331.978 354.174 332V333.745C354.081 333.717 353.954 333.692 353.79 333.671C353.627 333.649 353.478 333.638 353.343 333.638C353.053 333.638 352.795 333.702 352.567 333.828C352.342 333.951 352.164 334.123 352.032 334.345C351.902 334.566 351.838 334.822 351.838 335.111V339.123H349.871ZM361.09 334.054L359.29 334.165C359.259 334.011 359.193 333.872 359.091 333.749C358.99 333.623 358.856 333.523 358.69 333.449C358.527 333.372 358.331 333.334 358.103 333.334C357.799 333.334 357.542 333.398 357.332 333.528C357.123 333.654 357.019 333.823 357.019 334.035C357.019 334.205 357.086 334.348 357.222 334.465C357.357 334.582 357.589 334.676 357.919 334.746L359.202 335.005C359.892 335.146 360.405 335.374 360.744 335.688C361.083 336.002 361.252 336.414 361.252 336.925C361.252 337.39 361.115 337.798 360.841 338.149C360.57 338.5 360.198 338.773 359.724 338.97C359.253 339.164 358.71 339.261 358.094 339.261C357.155 339.261 356.408 339.066 355.851 338.675C355.297 338.281 354.972 337.746 354.876 337.068L356.811 336.967C356.869 337.253 357.011 337.472 357.235 337.622C357.46 337.77 357.748 337.844 358.099 337.844C358.443 337.844 358.72 337.778 358.93 337.646C359.142 337.51 359.25 337.336 359.253 337.124C359.25 336.945 359.174 336.799 359.027 336.685C358.879 336.568 358.651 336.479 358.343 336.418L357.115 336.173C356.423 336.034 355.907 335.794 355.569 335.453C355.233 335.111 355.066 334.676 355.066 334.146C355.066 333.691 355.189 333.298 355.435 332.969C355.684 332.64 356.034 332.386 356.483 332.207C356.935 332.029 357.465 331.94 358.071 331.94C358.967 331.94 359.671 332.129 360.185 332.507C360.702 332.886 361.004 333.401 361.09 334.054Z" fill="white"/>
</svg>
